<svg width="114" height="114" viewBox="0 0 114 114" fill="none" xmlns="http://www.w3.org/2000/svg">
<rect width="114" height="114" rx="57" fill="#219653"/>
<g clip-path="url(#clip0_1301_5)">
<path d="M66.9598 44.8964C66.9598 48.0358 62.9385 50.6044 57.8886 50.6044C52.8386 50.6044 48.8174 48.0358 48.8174 44.8964C48.8174 41.7571 52.8386 39.1885 57.8886 39.1885C62.845 39.2836 66.9598 41.7571 66.9598 44.8964Z" fill="#6C6ACD"/>
<path d="M98.5687 44.8964C98.5687 48.0358 94.5474 50.6044 89.4975 50.6044C84.4475 50.6044 80.4263 48.0358 80.4263 44.8964C80.4263 41.7571 84.4475 39.1885 89.4975 39.1885C94.4539 39.2836 98.5687 41.7571 98.5687 44.8964Z" fill="#6C6ACD"/>
<path d="M82.6707 44.8964C82.6707 48.0358 78.6495 50.6044 73.5995 50.6044C68.5496 50.6044 64.5283 48.0358 64.5283 44.8964C64.5283 41.7571 68.5496 39.1885 73.5995 39.1885C78.6495 39.2836 82.6707 41.7571 82.6707 44.8964Z" fill="#6C6ACD"/>
<path d="M74.7215 47.3691C74.7215 50.5085 70.7002 53.0771 65.6503 53.0771C60.6004 53.0771 56.5791 50.5085 56.5791 47.3691C56.5791 44.2297 60.6004 41.6611 65.6503 41.6611C70.7002 41.7563 74.7215 44.2297 74.7215 47.3691Z" fill="#853F27"/>
<path d="M90.0584 47.3691C90.0584 50.5085 86.0372 53.0771 80.9872 53.0771C75.9373 53.0771 71.916 50.5085 71.916 47.3691C71.916 44.2297 75.9373 41.6611 80.9872 41.6611C85.9436 41.7563 90.0584 44.2297 90.0584 47.3691Z" fill="#B35534"/>
<path d="M95.1083 64.5889H23.5674V70.2968H95.1083V64.5889Z" fill="#242424"/>
<path d="M100.065 46.0381H47.2275V64.589H100.065V46.0381Z" fill="#FFAD49"/>
<path d="M100.065 61.1641H47.2275V64.1132H100.065V61.1641Z" fill="#FFCD6A"/>
<path d="M100.065 53.6484H47.2275V57.1684H100.065V53.6484Z" fill="#FFCD6A"/>
<path d="M100.065 46.7041H47.2275V50.224H100.065V46.7041Z" fill="#FFCD6A"/>
<path d="M76.6854 80.0002C80.3008 80.0002 83.2316 77.0188 83.2316 73.3409C83.2316 69.6631 80.3008 66.6816 76.6854 66.6816C73.07 66.6816 70.1392 69.6631 70.1392 73.3409C70.1392 77.0188 73.07 80.0002 76.6854 80.0002Z" fill="#0A0A0A"/>
<path d="M76.6853 77.6215C79.0095 77.6215 80.8936 75.7049 80.8936 73.3405C80.8936 70.9762 79.0095 69.0596 76.6853 69.0596C74.3612 69.0596 72.4771 70.9762 72.4771 73.3405C72.4771 75.7049 74.3612 77.6215 76.6853 77.6215Z" fill="#B3B3B3"/>
<path d="M76.6854 76.3854C78.3382 76.3854 79.678 75.0224 79.678 73.3411C79.678 71.6598 78.3382 70.2969 76.6854 70.2969C75.0327 70.2969 73.6929 71.6598 73.6929 73.3411C73.6929 75.0224 75.0327 76.3854 76.6854 76.3854Z" fill="#575757"/>
<path d="M85.1017 72.7706L87.0656 72.0095L83.7925 63.8281H69.2972L66.3047 72.0095L68.175 72.7706L70.7 65.8259H82.4832L85.1017 72.7706Z" fill="#575757"/>
<path d="M47.321 52.6973H45.8247V64.684H47.321V52.6973Z" fill="#0A0A0A"/>
<path d="M33.0125 80.0002C36.6279 80.0002 39.5588 77.0188 39.5588 73.3409C39.5588 69.6631 36.6279 66.6816 33.0125 66.6816C29.3972 66.6816 26.4663 69.6631 26.4663 73.3409C26.4663 77.0188 29.3972 80.0002 33.0125 80.0002Z" fill="#0A0A0A"/>
<path d="M33.0125 77.6215C35.3367 77.6215 37.2208 75.7049 37.2208 73.3405C37.2208 70.9762 35.3367 69.0596 33.0125 69.0596C30.6883 69.0596 28.8042 70.9762 28.8042 73.3405C28.8042 75.7049 30.6883 77.6215 33.0125 77.6215Z" fill="#B3B3B3"/>
<path d="M33.0126 76.3854C34.6653 76.3854 36.0051 75.0224 36.0051 73.3411C36.0051 71.6598 34.6653 70.2969 33.0126 70.2969C31.3598 70.2969 30.02 71.6598 30.02 73.3411C30.02 75.0224 31.3598 76.3854 33.0126 76.3854Z" fill="#575757"/>
<path d="M26.2796 37H45.8247V72.7699H41.897L39.5591 65.3496C38.6239 65.3496 33.0128 65.4447 33.0128 65.4447L26.8407 65.1593L25.2509 72.6748H14.2158V49.2721C14.2158 42.5177 19.6398 37 26.2796 37Z" fill="#FF6565"/>
<path d="M17.5823 49.1768H32.171C32.3581 49.1768 32.5451 48.9866 32.5451 48.7963V39.4733C32.5451 39.283 32.3581 39.0928 32.171 39.0928H25.5313C20.9489 39.0928 17.3017 42.8981 17.3017 47.4645V48.7012C17.2082 48.9866 17.3952 49.1768 17.5823 49.1768Z" fill="#3A83B0"/>
<path d="M29.5528 52.6973H31.8907C32.1713 52.6973 32.4518 52.507 32.4518 52.1265C32.4518 51.8411 32.2648 51.5557 31.8907 51.5557H29.5528C29.2723 51.5557 28.9917 51.7459 28.9917 52.1265C29.0852 52.4119 29.2723 52.6973 29.5528 52.6973Z" fill="#700909"/>
<path d="M40.4941 59.1657C41.2688 59.1657 41.8968 58.8249 41.8968 58.4046C41.8968 57.9843 41.2688 57.6436 40.4941 57.6436C39.7193 57.6436 39.0913 57.9843 39.0913 58.4046C39.0913 58.8249 39.7193 59.1657 40.4941 59.1657Z" fill="#FF7B00"/>
<path d="M42.8323 49.1768H35.3509C34.9768 49.1768 34.6963 48.8914 34.6963 48.5109V39.7587C34.6963 39.3782 34.9768 39.0928 35.3509 39.0928H42.8323C43.2064 39.0928 43.4869 39.3782 43.4869 39.7587V48.5109C43.4869 48.8914 43.2064 49.1768 42.8323 49.1768Z" fill="#C43737"/>
<path d="M13.7481 72.009H21.6971C21.9777 72.009 22.3518 71.5333 22.4453 71.2479L24.6897 65.4448C24.6897 65.0643 24.3156 64.6837 23.9416 64.6837H13.7481C13.3741 64.5886 13 64.9691 13 65.3497V71.2479C13 71.6284 13.3741 72.009 13.7481 72.009Z" fill="#0A0A0A"/>
<path d="M15.5249 60.2125C15.5249 62.02 16.3666 63.5421 17.3953 63.5421C18.4239 63.5421 19.2656 62.1151 19.2656 60.2125C19.2656 58.4049 18.4239 56.8828 17.3953 56.8828C16.3666 56.9779 15.5249 58.4049 15.5249 60.2125Z" fill="#540606"/>
<path d="M15.7119 60.2121C15.7119 61.6391 16.3665 62.7807 17.2082 62.7807C18.0499 62.7807 18.7045 61.6391 18.7045 60.2121C18.7045 58.7851 18.0499 57.6436 17.2082 57.6436C16.3665 57.6436 15.7119 58.7851 15.7119 60.2121Z" fill="#EBD7A5"/>
<path d="M41.8969 72.7696L43.7672 72.0086L40.5876 63.8271H25.9989L23.0063 72.0086L24.9702 72.7696L27.4017 65.8249H39.1849L41.8969 72.7696Z" fill="#575757"/>
<path d="M101.093 49.1768H100.158V64.6834H101.093V49.1768Z" fill="#522D00"/>
</g>
<defs>
<clipPath id="clip0_1301_5">
<rect width="88" height="43" fill="white" transform="translate(13 37)"/>
</clipPath>
</defs>
</svg>
