<svg width="114" height="114" viewBox="0 0 114 114" fill="none" xmlns="http://www.w3.org/2000/svg">
<rect width="114" height="114" rx="57" fill="#219653"/>
<path d="M78.9896 71.034C78.9896 58.5099 70.2318 54.9189 60.7577 52.8976L55.7361 51.8725C48.3106 50.4012 47.7376 48.2303 47.7376 45.3244C47.7376 41.5536 51.1092 39.3 56.7571 39.3C63.4456 39.3 65.1594 42.6863 65.8704 45.2299L65.9382 45.4412C66.7794 47.6594 68.7342 48.9824 71.1733 48.9824C71.8049 48.9824 72.3727 48.8853 72.7973 48.7986C75.4148 48.2736 77.238 46.1736 77.238 43.6864C77.238 43.0695 77.1273 42.4579 76.9046 41.8633C75.5633 37.5163 71.7945 30.6741 61.3516 29.1122V21.6571C61.3516 15.4476 51.7017 15.4476 51.7017 21.6571V29.1568C40.4839 30.9261 36.3531 38.6175 36.3531 45.3218C36.3531 57.5203 44.7814 60.921 53.0144 62.6325L58.4462 63.7954C66.1817 65.381 67.5452 67.414 67.5452 71.097C67.5452 75.5976 63.7699 78.2804 57.4408 78.2804C49.2248 78.2804 47.55 74.5515 46.4301 70.3659C45.775 68.0493 43.6979 66.557 41.1363 66.557C40.5776 66.557 40.1297 66.6318 39.5892 66.725L39.4264 66.7565C36.7776 67.3904 35 69.4931 35 71.9855C35 72.4594 35.0833 72.8623 35.1511 73.1878L35.2344 73.5606C36.426 77.6202 39.0566 86.4862 52.177 88.4642V96.2671C52.177 99.3738 54.6019 101 57.0006 101C59.3994 101 61.8269 99.3738 61.8269 96.2671V88.6007C72.2451 87.233 79 80.5248 79 71.0353" fill="white"/>
</svg>
