<svg width="250" height="160" viewBox="0 0 250 160" fill="none" xmlns="http://www.w3.org/2000/svg">
<path d="M145.623 67V76.3333C145.623 77.571 145.14 78.758 144.281 79.6332C143.421 80.5083 142.255 81 141.04 81H108.956C107.741 81 106.575 80.5083 105.715 79.6332C104.856 78.758 104.373 77.571 104.373 76.3333V67" stroke="#212529" stroke-width="3.5" stroke-linecap="round" stroke-linejoin="round"/>
<path d="M136.458 50.6667L124.999 39L113.541 50.6667" stroke="#212529" stroke-width="3.5" stroke-linecap="round" stroke-linejoin="round"/>
<path d="M125.002 39V67" stroke="#212529" stroke-width="3.5" stroke-linecap="round" stroke-linejoin="round"/>
<path d="M61.9149 104.545H64.5569V116.026C64.5569 117.247 64.27 118.33 63.6961 119.273C63.1222 120.21 62.3154 120.949 61.2757 121.489C60.2359 122.023 59.0171 122.29 57.6194 122.29C56.2274 122.29 55.0114 122.023 53.9717 121.489C52.9319 120.949 52.1251 120.21 51.5512 119.273C50.9774 118.33 50.6904 117.247 50.6904 116.026V104.545H53.3239V115.812C53.3239 116.602 53.4972 117.304 53.8438 117.918C54.1961 118.531 54.6933 119.014 55.3353 119.366C55.9774 119.713 56.7387 119.886 57.6194 119.886C58.5058 119.886 59.27 119.713 59.912 119.366C60.5597 119.014 61.0541 118.531 61.395 117.918C61.7416 117.304 61.9149 116.602 61.9149 115.812V104.545ZM67.7012 126.909V108.909H70.1898V111.031H70.4029C70.5506 110.759 70.7637 110.443 71.0421 110.085C71.3205 109.727 71.7069 109.415 72.2012 109.148C72.6955 108.875 73.3489 108.739 74.1614 108.739C75.2182 108.739 76.1614 109.006 76.991 109.54C77.8205 110.074 78.4711 110.844 78.9427 111.849C79.4199 112.855 79.6586 114.065 79.6586 115.48C79.6586 116.895 79.4228 118.108 78.9512 119.119C78.4796 120.125 77.8319 120.901 77.008 121.446C76.1841 121.986 75.2438 122.256 74.187 122.256C73.3915 122.256 72.741 122.122 72.2353 121.855C71.7353 121.588 71.3432 121.276 71.0591 120.918C70.7751 120.56 70.5563 120.241 70.4029 119.963H70.2495V126.909H67.7012ZM70.1984 115.455C70.1984 116.375 70.3319 117.182 70.5989 117.875C70.866 118.568 71.2523 119.111 71.758 119.503C72.2637 119.889 72.883 120.082 73.616 120.082C74.3773 120.082 75.0137 119.881 75.5251 119.477C76.0364 119.068 76.4228 118.514 76.6841 117.815C76.9512 117.116 77.0847 116.33 77.0847 115.455C77.0847 114.591 76.954 113.815 76.6927 113.128C76.437 112.44 76.0506 111.898 75.5336 111.5C75.0222 111.102 74.383 110.903 73.616 110.903C72.8773 110.903 72.2523 111.094 71.741 111.474C71.2353 111.855 70.8518 112.386 70.5904 113.068C70.329 113.75 70.1984 114.545 70.1984 115.455ZM84.582 104.545V122H82.0337V104.545H84.582ZM93.0445 122.264C91.8172 122.264 90.7462 121.983 89.8314 121.42C88.9166 120.858 88.2064 120.071 87.7007 119.06C87.195 118.048 86.9422 116.866 86.9422 115.514C86.9422 114.156 87.195 112.969 87.7007 111.952C88.2064 110.935 88.9166 110.145 89.8314 109.582C90.7462 109.02 91.8172 108.739 93.0445 108.739C94.2717 108.739 95.3428 109.02 96.2575 109.582C97.1723 110.145 97.8825 110.935 98.3882 111.952C98.8939 112.969 99.1467 114.156 99.1467 115.514C99.1467 116.866 98.8939 118.048 98.3882 119.06C97.8825 120.071 97.1723 120.858 96.2575 121.42C95.3428 121.983 94.2717 122.264 93.0445 122.264ZM93.053 120.125C93.8484 120.125 94.5075 119.915 95.0303 119.494C95.553 119.074 95.9393 118.514 96.1893 117.815C96.445 117.116 96.5729 116.347 96.5729 115.506C96.5729 114.67 96.445 113.903 96.1893 113.205C95.9393 112.5 95.553 111.935 95.0303 111.509C94.5075 111.082 93.8484 110.869 93.053 110.869C92.2518 110.869 91.5871 111.082 91.0587 111.509C90.5359 111.935 90.1467 112.5 89.8911 113.205C89.6411 113.903 89.5161 114.67 89.5161 115.506C89.5161 116.347 89.6411 117.116 89.8911 117.815C90.1467 118.514 90.5359 119.074 91.0587 119.494C91.5871 119.915 92.2518 120.125 93.053 120.125ZM105.321 122.29C104.491 122.29 103.741 122.136 103.071 121.83C102.4 121.517 101.869 121.065 101.477 120.474C101.091 119.884 100.898 119.159 100.898 118.301C100.898 117.562 101.04 116.955 101.324 116.477C101.608 116 101.991 115.622 102.474 115.344C102.957 115.065 103.497 114.855 104.094 114.713C104.69 114.571 105.298 114.463 105.917 114.389C106.702 114.298 107.338 114.224 107.827 114.168C108.315 114.105 108.67 114.006 108.892 113.869C109.113 113.733 109.224 113.511 109.224 113.205V113.145C109.224 112.401 109.014 111.824 108.594 111.415C108.179 111.006 107.559 110.801 106.736 110.801C105.878 110.801 105.202 110.991 104.707 111.372C104.219 111.747 103.881 112.165 103.693 112.625L101.298 112.08C101.582 111.284 101.997 110.642 102.542 110.153C103.094 109.659 103.727 109.301 104.443 109.08C105.159 108.852 105.912 108.739 106.702 108.739C107.224 108.739 107.778 108.801 108.363 108.926C108.954 109.045 109.506 109.267 110.017 109.591C110.534 109.915 110.957 110.378 111.287 110.98C111.616 111.577 111.781 112.352 111.781 113.307V122H109.292V120.21H109.19C109.025 120.54 108.778 120.864 108.449 121.182C108.119 121.5 107.696 121.764 107.179 121.974C106.662 122.185 106.042 122.29 105.321 122.29ZM105.875 120.244C106.579 120.244 107.182 120.105 107.682 119.827C108.187 119.548 108.571 119.185 108.832 118.736C109.099 118.281 109.233 117.795 109.233 117.278V115.591C109.142 115.682 108.966 115.767 108.704 115.847C108.449 115.92 108.156 115.986 107.827 116.043C107.497 116.094 107.176 116.142 106.863 116.188C106.551 116.227 106.29 116.261 106.079 116.29C105.585 116.352 105.133 116.457 104.724 116.605C104.321 116.753 103.997 116.966 103.753 117.244C103.514 117.517 103.395 117.881 103.395 118.335C103.395 118.966 103.628 119.443 104.094 119.767C104.559 120.085 105.153 120.244 105.875 120.244ZM119.596 122.256C118.539 122.256 117.596 121.986 116.766 121.446C115.942 120.901 115.295 120.125 114.823 119.119C114.357 118.108 114.124 116.895 114.124 115.48C114.124 114.065 114.36 112.855 114.832 111.849C115.309 110.844 115.962 110.074 116.792 109.54C117.621 109.006 118.562 108.739 119.613 108.739C120.425 108.739 121.079 108.875 121.573 109.148C122.073 109.415 122.459 109.727 122.732 110.085C123.011 110.443 123.227 110.759 123.38 111.031H123.533V104.545H126.082V122H123.593V119.963H123.38C123.227 120.241 123.005 120.56 122.715 120.918C122.431 121.276 122.039 121.588 121.539 121.855C121.039 122.122 120.391 122.256 119.596 122.256ZM120.158 120.082C120.891 120.082 121.511 119.889 122.016 119.503C122.528 119.111 122.914 118.568 123.175 117.875C123.442 117.182 123.576 116.375 123.576 115.455C123.576 114.545 123.445 113.75 123.184 113.068C122.923 112.386 122.539 111.855 122.033 111.474C121.528 111.094 120.903 110.903 120.158 110.903C119.391 110.903 118.752 111.102 118.241 111.5C117.729 111.898 117.343 112.44 117.082 113.128C116.826 113.815 116.698 114.591 116.698 115.455C116.698 116.33 116.829 117.116 117.09 117.815C117.352 118.514 117.738 119.068 118.249 119.477C118.766 119.881 119.403 120.082 120.158 120.082ZM135.11 122V108.909H137.659V122H135.11ZM136.397 106.889C135.954 106.889 135.573 106.741 135.255 106.446C134.943 106.145 134.786 105.787 134.786 105.372C134.786 104.952 134.943 104.594 135.255 104.298C135.573 103.997 135.954 103.847 136.397 103.847C136.84 103.847 137.218 103.997 137.531 104.298C137.849 104.594 138.008 104.952 138.008 105.372C138.008 105.787 137.849 106.145 137.531 106.446C137.218 106.741 136.84 106.889 136.397 106.889ZM140.607 122V108.909H143.053V111.04H143.215C143.488 110.318 143.934 109.756 144.553 109.352C145.172 108.943 145.914 108.739 146.777 108.739C147.652 108.739 148.385 108.943 148.976 109.352C149.573 109.761 150.013 110.324 150.297 111.04H150.434C150.746 110.341 151.243 109.784 151.925 109.369C152.607 108.949 153.419 108.739 154.363 108.739C155.55 108.739 156.519 109.111 157.269 109.855C158.024 110.599 158.402 111.722 158.402 113.222V122H155.854V113.46C155.854 112.574 155.613 111.932 155.13 111.534C154.647 111.136 154.07 110.938 153.399 110.938C152.57 110.938 151.925 111.193 151.465 111.705C151.005 112.21 150.774 112.861 150.774 113.656V122H148.235V113.298C148.235 112.588 148.013 112.017 147.57 111.585C147.127 111.153 146.55 110.938 145.84 110.938C145.357 110.938 144.911 111.065 144.502 111.321C144.098 111.571 143.772 111.92 143.522 112.369C143.277 112.818 143.155 113.338 143.155 113.929V122H140.607ZM165.147 122.29C164.318 122.29 163.568 122.136 162.897 121.83C162.227 121.517 161.696 121.065 161.304 120.474C160.917 119.884 160.724 119.159 160.724 118.301C160.724 117.562 160.866 116.955 161.15 116.477C161.434 116 161.818 115.622 162.301 115.344C162.784 115.065 163.324 114.855 163.92 114.713C164.517 114.571 165.125 114.463 165.744 114.389C166.528 114.298 167.164 114.224 167.653 114.168C168.142 114.105 168.497 114.006 168.718 113.869C168.94 113.733 169.051 113.511 169.051 113.205V113.145C169.051 112.401 168.841 111.824 168.42 111.415C168.005 111.006 167.386 110.801 166.562 110.801C165.704 110.801 165.028 110.991 164.534 111.372C164.045 111.747 163.707 112.165 163.52 112.625L161.125 112.08C161.409 111.284 161.824 110.642 162.369 110.153C162.92 109.659 163.554 109.301 164.27 109.08C164.985 108.852 165.738 108.739 166.528 108.739C167.051 108.739 167.605 108.801 168.19 108.926C168.781 109.045 169.332 109.267 169.843 109.591C170.36 109.915 170.784 110.378 171.113 110.98C171.443 111.577 171.608 112.352 171.608 113.307V122H169.119V120.21H169.017C168.852 120.54 168.605 120.864 168.275 121.182C167.946 121.5 167.522 121.764 167.005 121.974C166.488 122.185 165.869 122.29 165.147 122.29ZM165.701 120.244C166.406 120.244 167.008 120.105 167.508 119.827C168.014 119.548 168.397 119.185 168.659 118.736C168.926 118.281 169.059 117.795 169.059 117.278V115.591C168.968 115.682 168.792 115.767 168.531 115.847C168.275 115.92 167.983 115.986 167.653 116.043C167.324 116.094 167.003 116.142 166.69 116.188C166.378 116.227 166.116 116.261 165.906 116.29C165.412 116.352 164.96 116.457 164.551 116.605C164.147 116.753 163.824 116.966 163.579 117.244C163.341 117.517 163.221 117.881 163.221 118.335C163.221 118.966 163.454 119.443 163.92 119.767C164.386 120.085 164.98 120.244 165.701 120.244ZM180.01 127.182C178.971 127.182 178.076 127.045 177.326 126.773C176.581 126.5 175.974 126.139 175.502 125.69C175.03 125.241 174.678 124.75 174.445 124.216L176.635 123.312C176.789 123.562 176.993 123.827 177.249 124.105C177.51 124.389 177.863 124.631 178.306 124.83C178.755 125.028 179.331 125.128 180.036 125.128C181.002 125.128 181.8 124.892 182.431 124.42C183.062 123.955 183.377 123.21 183.377 122.188V119.614H183.215C183.062 119.892 182.84 120.202 182.55 120.543C182.266 120.884 181.874 121.179 181.374 121.429C180.874 121.679 180.224 121.804 179.422 121.804C178.388 121.804 177.456 121.562 176.627 121.08C175.803 120.591 175.15 119.872 174.667 118.923C174.189 117.969 173.951 116.795 173.951 115.403C173.951 114.011 174.187 112.818 174.658 111.824C175.135 110.83 175.789 110.068 176.618 109.54C177.448 109.006 178.388 108.739 179.439 108.739C180.252 108.739 180.908 108.875 181.408 109.148C181.908 109.415 182.297 109.727 182.576 110.085C182.86 110.443 183.079 110.759 183.232 111.031H183.42V108.909H185.917V122.29C185.917 123.415 185.655 124.338 185.133 125.06C184.61 125.781 183.902 126.315 183.01 126.662C182.124 127.009 181.124 127.182 180.01 127.182ZM179.985 119.69C180.718 119.69 181.337 119.52 181.843 119.179C182.354 118.832 182.741 118.338 183.002 117.696C183.269 117.048 183.402 116.273 183.402 115.369C183.402 114.489 183.272 113.713 183.01 113.043C182.749 112.372 182.366 111.849 181.86 111.474C181.354 111.094 180.729 110.903 179.985 110.903C179.218 110.903 178.579 111.102 178.067 111.5C177.556 111.892 177.17 112.426 176.908 113.102C176.652 113.778 176.525 114.534 176.525 115.369C176.525 116.227 176.655 116.98 176.917 117.628C177.178 118.276 177.564 118.781 178.076 119.145C178.593 119.509 179.229 119.69 179.985 119.69ZM194.496 122.264C193.207 122.264 192.096 121.989 191.164 121.438C190.238 120.881 189.522 120.099 189.016 119.094C188.516 118.082 188.266 116.898 188.266 115.54C188.266 114.199 188.516 113.017 189.016 111.994C189.522 110.972 190.226 110.173 191.13 109.599C192.039 109.026 193.101 108.739 194.317 108.739C195.056 108.739 195.772 108.861 196.465 109.105C197.158 109.349 197.78 109.733 198.332 110.256C198.883 110.778 199.317 111.457 199.636 112.293C199.954 113.122 200.113 114.131 200.113 115.318V116.222H189.707V114.312H197.616C197.616 113.642 197.479 113.048 197.207 112.531C196.934 112.009 196.55 111.597 196.056 111.295C195.567 110.994 194.994 110.844 194.334 110.844C193.619 110.844 192.994 111.02 192.459 111.372C191.931 111.719 191.522 112.173 191.232 112.736C190.948 113.293 190.806 113.898 190.806 114.551V116.043C190.806 116.918 190.959 117.662 191.266 118.276C191.579 118.889 192.013 119.358 192.57 119.682C193.127 120 193.778 120.159 194.522 120.159C195.005 120.159 195.445 120.091 195.843 119.955C196.241 119.812 196.584 119.602 196.874 119.324C197.164 119.045 197.386 118.702 197.539 118.293L199.951 118.727C199.758 119.437 199.411 120.06 198.911 120.594C198.417 121.122 197.795 121.534 197.045 121.83C196.3 122.119 195.451 122.264 194.496 122.264Z" fill="#212529"/>
<rect x="1.5" y="1.5" width="247" height="157" rx="12.5" stroke="#E9ECEF" stroke-width="3" stroke-dasharray="15 15"/>
</svg>
