<svg width="114" height="114" viewBox="0 0 114 114" fill="none" xmlns="http://www.w3.org/2000/svg">
<rect width="114" height="114" rx="57" fill="#219653"/>
<path d="M88.4531 86.8581L86.3708 78.243C87.7243 67.0638 87.6202 47.3721 86.3708 36.0903L88.4531 27.3726C88.9737 25.424 87.0996 23.6804 85.1214 24.1932L78.3539 25.9368C67.7342 24.2958 46.0783 23.9881 35.875 25.7317L29.3158 24.0907C27.4417 23.5779 25.5677 25.3214 26.0882 27.2701L28.1705 35.9878L28.2746 35.8852C26.9212 47.1669 26.817 66.6536 28.2746 77.9353L26.0882 86.8581C25.5677 88.8068 27.4417 90.5503 29.4199 90.0375L36.1874 88.294C46.703 90.3452 68.0466 90.4477 78.6663 88.3965L85.2255 90.1401C87.2037 90.5503 88.9737 88.8068 88.4531 86.8581Z" fill="#FFAE0D"/>
<path d="M79.5003 33.6934H35.1445V79H79.5003V33.6934Z" fill="#FFDAA8"/>
<path d="M72.3302 60.025C74.357 51.8298 69.2558 43.5677 60.9364 41.5712C52.617 39.5747 44.2297 44.5997 42.203 52.795C40.1762 60.9902 45.2774 69.2523 53.5968 71.2488C61.9162 73.2453 70.3035 68.2203 72.3302 60.025Z" fill="white"/>
<path d="M47.7709 64.6384C57.7377 74.6383 63.0903 49.7295 63.0903 49.7295C63.0903 49.7295 37.6195 54.6385 47.7709 64.6384Z" fill="#66C30F"/>
<path d="M48.1402 64.0924C48.6939 64.6379 62.3521 50.2744 62.3521 50.2744C62.3521 50.2744 47.5865 63.547 48.1402 64.0924Z" fill="#378F00"/>
<path d="M62.9038 66.2759C72.1324 70.6394 69.3638 52.6396 69.3638 52.6396C69.3638 52.6396 53.6753 62.0941 62.9038 66.2759Z" fill="#66C30F"/>
<path d="M63.0875 65.9125C63.6412 66.2761 69.1783 53.3672 69.1783 53.3672C69.1783 53.3672 62.5338 65.5489 63.0875 65.9125Z" fill="#378F00"/>
<path d="M49.9851 47.7297C52.0153 56.4569 63.4587 44.8207 63.4587 44.8207C63.4587 44.8207 47.9548 39.0026 49.9851 47.7297Z" fill="#66C30F"/>
<path d="M50.3545 47.5476C50.3545 48.093 62.9053 44.8203 62.9053 44.8203C62.9053 44.8203 50.17 47.0021 50.3545 47.5476Z" fill="#378F00"/>
<path d="M83.8721 37.1162C87.3079 52.8081 84.3926 77.1151 84.3926 77.1151C84.3926 77.1151 86.2667 55.8849 83.8721 37.1162Z" fill="#825907"/>
<path d="M31.3984 77.1151C27.9626 61.4232 30.8778 37.1162 30.8778 37.1162C30.8778 37.1162 29.1078 58.3464 31.3984 77.1151Z" fill="#825907"/>
<path d="M82.8311 43.8848C85.0175 43.8848 86.371 43.372 86.371 43.372C86.371 43.372 83.9763 42.3464 82.8311 43.8848Z" fill="#825907"/>
<path d="M82.9355 50.4493C85.122 50.4493 86.4754 49.9365 86.4754 49.9365C86.4754 49.9365 84.0808 48.9108 82.9355 50.4493Z" fill="#825907"/>
<path d="M83.248 58.1411C85.4345 58.1411 86.788 57.7309 86.788 57.7309C86.788 57.7309 84.3933 56.7053 83.248 58.1411Z" fill="#825907"/>
<path d="M82.9355 65.7309C85.0178 66.1411 86.4754 65.936 86.4754 65.936C86.4754 65.936 84.3932 64.5001 82.9355 65.7309Z" fill="#825907"/>
<path d="M82.1025 73.115C84.1848 73.5252 85.6424 73.3201 85.6424 73.3201C85.6424 73.3201 83.5601 71.7817 82.1025 73.115Z" fill="#825907"/>
<path d="M32.2313 71.3721C30.0449 71.3721 28.6914 71.8849 28.6914 71.8849C28.6914 71.8849 30.9819 72.9105 32.2313 71.3721Z" fill="#825907"/>
<path d="M32.0233 64.8076C29.8369 64.8076 28.4834 65.3204 28.4834 65.3204C28.4834 65.3204 30.878 66.346 32.0233 64.8076Z" fill="#825907"/>
<path d="M31.8153 57.1152C29.6289 57.1152 28.2754 57.5255 28.2754 57.5255C28.2754 57.5255 30.5659 58.5511 31.8153 57.1152Z" fill="#825907"/>
<path d="M32.1278 49.5259C30.0455 49.1157 28.5879 49.3208 28.5879 49.3208C28.5879 49.3208 30.6702 50.7567 32.1278 49.5259Z" fill="#825907"/>
<path d="M32.8563 42.1421C30.774 41.7319 29.3164 41.937 29.3164 41.937C29.3164 41.937 31.3987 43.4754 32.8563 42.1421Z" fill="#825907"/>
<path d="M37.541 28.6038C53.4706 25.2193 78.1458 28.091 78.1458 28.091C78.1458 28.091 56.6982 26.2449 37.541 28.6038Z" fill="#825907"/>
<path d="M43.3723 29.322C43.3723 27.1683 42.8517 25.835 42.8517 25.835C42.8517 25.835 41.8105 28.1939 43.3723 29.322Z" fill="#825907"/>
<path d="M50.0353 29.2195C50.0353 27.0657 49.5148 25.7324 49.5148 25.7324C49.5148 25.7324 48.4736 28.0913 50.0353 29.2195Z" fill="#825907"/>
<path d="M57.9483 29.0134C57.9483 26.8597 57.5319 25.5264 57.5319 25.5264C57.5319 25.5264 56.3866 27.7827 57.9483 29.0134Z" fill="#825907"/>
<path d="M65.6525 29.322C66.069 27.2708 65.8608 25.835 65.8608 25.835C65.8608 25.835 64.299 27.7836 65.6525 29.322Z" fill="#825907"/>
<path d="M73.0441 30.0398C73.4605 27.9886 73.2523 26.5527 73.2523 26.5527C73.2523 26.5527 71.7947 28.604 73.0441 30.0398Z" fill="#825907"/>
<path d="M77.8334 84.7051C61.9038 88.0896 37.2285 85.2179 37.2285 85.2179C37.2285 85.2179 58.7803 86.9614 77.8334 84.7051Z" fill="#825907"/>
<path d="M72.0039 83.8838C72.0039 86.0376 72.5245 87.3709 72.5245 87.3709C72.5245 87.3709 73.5656 85.012 72.0039 83.8838Z" fill="#825907"/>
<path d="M65.3398 84.0889C65.3398 86.2426 65.8604 87.5759 65.8604 87.5759C65.8604 87.5759 66.9016 85.217 65.3398 84.0889Z" fill="#825907"/>
<path d="M57.5312 84.2939C57.5312 86.4477 57.9477 87.781 57.9477 87.781C57.9477 87.781 58.9889 85.5247 57.5312 84.2939Z" fill="#825907"/>
<path d="M49.8267 83.9863C49.4102 86.0375 49.6185 87.4734 49.6185 87.4734C49.6185 87.4734 51.0761 85.4222 49.8267 83.9863Z" fill="#825907"/>
<path d="M42.3306 83.166C41.9141 85.2172 42.1224 86.6531 42.1224 86.6531C42.1224 86.6531 43.6841 84.7044 42.3306 83.166Z" fill="#825907"/>
</svg>
